<?xml version="1.0" encoding="UTF-8"?>
<svg id="Layer_1" xmlns="http://www.w3.org/2000/svg" version="1.1" viewBox="0 0 512 512">
  <!-- Generator: Adobe Illustrator 30.5.1, SVG Export Plug-In . SVG Version: 2.1.4 Build 3)  -->
  <defs>
    <style>
      .st0 {
        fill: #f2c194;
      }

      .st1 {
        fill: #586475;
      }
    </style>
  </defs>
  <rect class="st1" width="512" height="512" rx="64" ry="64"/>
  <path class="st0" d="M329.65,400.71v-39.91c0-28-9.49-55.57-26.72-77.65-3.05-3.91-8.7-4.61-12.61-1.55-3.91,3.05-4.61,8.7-1.55,12.61,14.78,18.93,22.92,42.58,22.92,66.59v34.5c-17.71,7.11-36.45,10.72-55.78,10.72s-38.07-3.61-55.79-10.72v-34.5c0-41.24,22.92-78.32,59.8-96.77,43.02-21.51,69.74-64.74,69.74-112.84v-38.44c.9-4.08-1.14-8.36-5.1-10.14-21.65-9.71-44.75-14.63-68.66-14.63s-46.85,4.89-68.43,14.53c-3.45,1.54-5.45,4.99-5.31,8.55,0,.07-.01.14-.01.22v39.91c0,27.7,9.31,55.04,26.22,77,1.77,2.3,4.43,3.5,7.12,3.5,1.91,0,3.84-.61,5.48-1.87,3.93-3.03,4.66-8.67,1.64-12.6-14.5-18.83-22.49-42.28-22.49-66.03v-34.5c17.72-7.11,36.45-10.72,55.79-10.72s38.07,3.61,55.78,10.72v34.5c0,41.24-22.92,78.32-59.8,96.77-43.02,21.51-69.74,64.75-69.74,112.84v39.91c0,.07,0,.14.01.22-.14,3.56,1.86,7.01,5.31,8.55,21.59,9.64,44.61,14.53,68.43,14.53s46.85-4.89,68.43-14.53c3.45-1.54,5.45-4.99,5.31-8.55,0-.07.01-.14.01-.21Z"/>
</svg>